{
  "accessors": [
    {
      "bufferView": 2,
      "componentType": 5126,
      "count": 65532,
      "max": [
        0.44424599409103394,
        -1.3330199718475342,
        0.47035101056098938
      ],
      "min": [
        -0.12860199809074402,
        -2.0004599094390869,
        -0.52899402379989624
      ],
      "type": "VEC3"
    },
    {
      "bufferView": 2,
      "byteOffset": 786384,
      "componentType": 5126,
      "count": 65532,
      "max": [
        0.99955129623413086,
        0.99999237060546875,
        0.99999541044235229
      ],
      "min": [
        -0.99999833106994629,
        -0.99983078241348267,
        -0.99993538856506348
      ],
      "type": "VEC3"
    },
    {
      "bufferView": 1,
      "componentType": 5126,
      "count": 65532,
      "max": [
        0.36551299691200256,
        0.99937301874160767
      ],
      "min": [
        0.00063199998112395406,
        0.24102100729942322
      ],
      "type": "VEC2"
    },
    {
      "bufferView": 0,
      "componentType": 5125,
      "count": 373362,
      "max": [
        65531
      ],
      "min": [
        0
      ],
      "type": "SCALAR"
    },
    {
      "bufferView": 2,
      "byteOffset": 1572768,
      "componentType": 5126,
      "count": 65532,
      "max": [
        0.44661900401115417,
        -1.3330199718475342,
        0.46985000371932983
      ],
      "min": [
        -0.13292500376701355,
        -2.0284500122070312,
        -0.46441000699996948
      ],
      "type": "VEC3"
    },
    {
      "bufferView": 2,
      "byteOffset": 2359152,
      "componentType": 5126,
      "count": 65532,
      "max": [
        0.9999651312828064,
        0.99999237060546875,
        0.99962693452835083
      ],
      "min": [
        -0.99999576807022095,
        -0.99995690584182739,
        -0.73507791757583618
      ],
      "type": "VEC3"
    },
    {
      "bufferView": 1,
      "byteOffset": 524256,
      "componentType": 5126,
      "count": 65532,
      "max": [
        0.36689698696136475,
        0.85604399442672729
      ],
      "min": [
        0.00065000000176951289,
        0.061505001038312912
      ],
      "type": "VEC2"
    },
    {
      "bufferView": 0,
      "byteOffset": 1493448,
      "componentType": 5125,
      "count": 372474,
      "max": [
        65531
      ],
      "min": [
        0
      ],
      "type": "SCALAR"
    },
    {
      "bufferView": 2,
      "byteOffset": 3145536,
      "componentType": 5126,
      "count": 47991,
      "max": [
        0.4251289963722229,
        -1.3330199718475342,
        0.46630400419235229
      ],
      "min": [
        -0.10354699939489365,
        -2.0290899276733398,
        -0.52899402379989624
      ],
      "type": "VEC3"
    },
    {
      "bufferView": 2,
      "byteOffset": 3721428,
      "componentType": 5126,
      "count": 47991,
      "max": [
        0.99998736381530762,
        0.99993479251861572,
        0.99994081258773804
      ],
      "min": [
        -0.97795027494430542,
        -0.99995595216751099,
        -0.99993538856506348
      ],
      "type": "VEC3"
    },
    {
      "bufferView": 1,
      "byteOffset": 1048512,
      "componentType": 5126,
      "count": 47991,
      "max": [
        0.87897199392318726,
        0.99938797950744629
      ],
      "min": [
        0.00066899997182190418,
        0.015592999756336212
      ],
      "type": "VEC2"
    },
    {
      "bufferView": 0,
      "byteOffset": 2983344,
      "componentType": 5125,
      "count": 249816,
      "max": [
        47990
      ],
      "min": [
        0
      ],
      "type": "SCALAR"
    }
  ],
  "asset": {
    "extras": {
      "author": "Chemical_X_ (https://sketchfab.com/Chemical_X_)",
      "license": "CC-BY-4.0 (http://creativecommons.org/licenses/by/4.0/)",
      "source": "https://sketchfab.com/3d-models/bread-1342b4a01fd74046b6a265015dc76a37",
      "title": "Bread"
    },
    "generator": "Sketchfab-8.43.0",
    "version": "2.0"
  },
  "bufferViews": [
    {
      "buffer": 0,
      "byteLength": 3982608,
      "byteOffset": 0,
      "name": "floatBufferViews",
      "target": 34963
    },
    {
      "buffer": 0,
      "byteLength": 1432440,
      "byteOffset": 3982608,
      "byteStride": 8,
      "name": "floatBufferViews",
      "target": 34962
    },
    {
      "buffer": 0,
      "byteLength": 4297320,
      "byteOffset": 5415048,
      "byteStride": 12,
      "name": "floatBufferViews",
      "target": 34962
    }
  ],
  "buffers": [
    {
      "byteLength": 9712368,
      "uri": "scene.bin"
    }
  ],
  "extensionsUsed": [
    "KHR_materials_unlit"
  ],
  "images": [
    {
      "uri": "textures/TextureAtlas_1001_baseColor.png"
    }
  ],
  "materials": [
    {
      "doubleSided": true,
      "emissiveFactor": [
        0,
        0,
        0
      ],
      "extensions": {
        "KHR_materials_unlit": {}
      },
      "name": "TextureAtlas_1001",
      "pbrMetallicRoughness": {
        "baseColorFactor": [
          1,
          1,
          1,
          1
        ],
        "baseColorTexture": {
          "index": 0,
          "texCoord": 0
        },
        "metallicFactor": 0,
        "roughnessFactor": 1
      }
    }
  ],
  "meshes": [
    {
      "primitives": [
        {
          "attributes": {
            "NORMAL": 1,
            "POSITION": 0,
            "TEXCOORD_0": 2
          },
          "indices": 3,
          "material": 0,
          "mode": 4
        }
      ]
    },
    {
      "primitives": [
        {
          "attributes": {
            "NORMAL": 5,
            "POSITION": 4,
            "TEXCOORD_0": 6
          },
          "indices": 7,
          "material": 0,
          "mode": 4
        }
      ]
    },
    {
      "primitives": [
        {
          "attributes": {
            "NORMAL": 9,
            "POSITION": 8,
            "TEXCOORD_0": 10
          },
          "indices": 11,
          "material": 0,
          "mode": 4
        }
      ]
    }
  ],
  "nodes": [
    {
      "children": [
        1
      ],
      "name": "RootNode (gltf orientation matrix)",
      "rotation": [
        -0.70710678118654746,
        -0,
        -0,
        0.70710678118654757
      ]
    },
    {
      "children": [
        2
      ],
      "matrix": [
        0.015379991382360458,
        0.51640689373016357,
        0.85620522499084473,
        0,
        -0.21378658711910248,
        0.83820265531539917,
        -0.50170868635177612,
        0,
        -0.97675931453704834,
        -0.17532892525196075,
        0.12329241633415222,
        0,
        -0.23359304666519165,
        -0.35812792181968689,
        -1.0033996105194092,
        1
      ],
      "name": "RootNode (model correction matrix)"
    },
    {
      "children": [
        3,
        4,
        5
      ],
      "name": "texturedMesh.obj.cleaner.materialmerger.gles"
    },
    {
      "mesh": 0,
      "name": ""
    },
    {
      "mesh": 1,
      "name": ""
    },
    {
      "mesh": 2,
      "name": ""
    }
  ],
  "samplers": [
    {
      "magFilter": 9729,
      "minFilter": 9987,
      "wrapS": 10497,
      "wrapT": 10497
    }
  ],
  "scene": 0,
  "scenes": [
    {
      "name": "OSG_Scene",
      "nodes": [
        0
      ]
    }
  ],
  "textures": [
    {
      "sampler": 0,
      "source": 0
    }
  ]
}

